<?xml version="1.0" encoding="utf-8"?>
<!-- Designed by Vexels.com - 2019 All Rights Reserved - https://vexels.com/terms-and-conditions/  -->
<svg version="1.1" id="Layer_1" xmlns="http://www.w3.org/2000/svg" xmlns:xlink="http://www.w3.org/1999/xlink" x="0px" y="0px"
	 viewBox="0 0 1200 1200" enable-background="new 0 0 1200 1200" xml:space="preserve">
<g>
	<path fill="#FFFFFF" d="M353.665,612.47c-39.088-17.137-77.032-8.818-114.685,5.229c-24.747,9.232-48.902,20.314-75.475,23.744
		c-20.108,2.596-38.713-0.471-54.893-13.788c-1.867-1.536-5.082-1.873-7.697-1.955c-3.599-0.112-7.227,0.883-10.833,0.824
		c-20.578-0.34-31.123-8.411-36.206-28.397c-1.885-7.412-2.408-15.171-3.876-24.929c15.321,5.799,28.95,10.361,42.055,16.117
		c9.516,4.18,11.337,13.865,12.001,23.002c0.531,7.308,4.208,11.03,10.245,14.071c18.357,9.247,37.714,10.135,56.893,5.018
		c23.995-6.402,47.523-14.566,71.224-22.058c31.536-9.968,63.439-13.048,95.756-4.487c5.423,1.436,10.25,5.122,15.352,7.769
		L353.665,612.47z"/>
	<path fill="#FFFFFF" d="M619.126,636.92c11.319-2.722,17.547-10.435,23.886-18.388c12.422-15.586,9.421-33.9,0.798-47.91
		c-3.375-5.483-6.54-11.094-9.801-16.647c0.918-0.89,1.836-1.779,2.755-2.669c4.621,2.822,10.473,4.671,13.619,8.656
		c7.807,9.89,15.343,20.248,21.19,31.364c6.508,12.371,1.806,24.904-3.839,36.529c-1.156,2.381-4.691,3.939-7.448,5.151
		C650.259,637.415,628.307,639.566,619.126,636.92z"/>
	<path fill="#FFFFFF" d="M1094.787,623.843c1.186-6.062,2.482-11.276,3.182-16.568c1.407-10.632,7.409-17.475,17.164-21.014
		c11.143-4.042,22.447-7.641,34.867-11.832c-1.386,16.81-1.566,33.744-15.492,44.764
		C1122.852,628.416,1108.616,627.633,1094.787,623.843z"/>
	<path fill="#FFFFFF" d="M540.105,547.914c0.989-10.223,1.738-19.344,2.909-28.411c0.153-1.186,2.357-2.773,3.81-3.024
		c18.546-3.208,37.068-6.732,55.745-8.877c4.492-0.516,9.787,3.298,14.182,5.988c1.591,0.974,2.714,4.877,2.048,6.721
		c-0.576,1.596-3.886,2.592-6.159,3.127c-14.297,3.367-28.829,5.896-42.89,10.037c-6.72,1.979-12.478,7.078-18.865,10.393
		C547.494,545.629,543.69,546.599,540.105,547.914z"/>
	<path fill="#FFFFFF" d="M566.181,572.363c-2.772,18.287-3.934,37.312,16.693,45.157c22.715,8.639,35.482,5.161,55.957-20.778
		c3.815,11.184-4.88,27.998-20.231,36.99c-14.632,8.571-30.072,9.937-44.322-4.998C555.573,609.129,552.69,593.398,566.181,572.363z
		"/>
	<path fill="#FFFFFF" d="M563.482,632.828c-10.527,2.374-22.609-2.948-27.786-12.708c-5.225-9.852-9.882-20.006-14.703-30.069
		c-0.512-1.068-0.96-2.6-0.582-3.591c3.133-8.211,6.067-16.537,9.864-24.443c3.187-6.635,8.982-10.461,17.714-11.536
		c-2.183,5.31-4.246,9.884-5.962,14.584c-5.074,13.894-3.533,19.319,7.553,29.18c1.329,1.182,2.618,3.517,2.419,5.133
		c-1.423,11.602,1.139,21.599,10.47,29.296c0.557,0.46,0.873,1.294,1.123,2.016C563.745,631.134,563.558,631.695,563.482,632.828z"
		/>
	<path fill="#FFFFFF" d="M471.616,615.825c0.592-0.312,2.237-1.181,3.883-2.049c0.17-0.807,0.341-1.614,0.511-2.421
		c-7.184-2.35-14.367-4.699-20.467-6.694c16.402-7.267,31.545,4.91,48.876,7.434c1.855-17.399-4.815-29.034-17.786-33.453
		c-3.617-8.554-6.132-14.5-8.646-20.446c0.409-0.215,0.817-0.43,1.226-0.645c1.417,1.744,3.062,3.349,4.213,5.254
		c6.206,10.27,12.775,19.872,25.087,24.063c2.875,0.979,5.61,4.962,6.684,8.145c2.958,8.761,1.636,18.602,6.838,27.018
		c0.838,1.356-1.409,6.706-2.807,6.954c-3.793,0.672-8.963,0.968-11.631-1.105c-4.211-3.27-7.781-2.889-12.46-2.655
		c-4.142,0.207-8.536-2.028-12.605-3.702C478.679,619.935,475.103,617.676,471.616,615.825z"/>
	<path fill="#FFFFFF" d="M698.758,620.93c15.693-1.267,29.608-13.314,46.334-7.769c-16.95,5.628-18.372,6.645-15.329,11.023
		c-2.724,1.709-6.01,2.919-8.058,5.228c-4.611,5.197-9.899,5.633-16.224,4.497c-2.499-0.449-5.687,0.58-7.996,1.914
		c-4.714,2.722-9.818,5.54-14.206,1.262c-4.764-4.645-2.087-9.837,1.422-14.596c1.279-1.735,2.092-4.578,1.701-6.647
		c-1.528-8.085,0.896-16.298,7.435-18.949c14.902-6.043,21.598-19.091,31.352-30.121c-1.263,2.966-3.173,5.839-3.612,8.922
		c-0.464,3.26-8.242,4.983-2.078,9.518c-1.182,0.945-2.253,2.097-3.564,2.802C701.557,595.745,697.036,604.296,698.758,620.93z"/>
	<path fill="#FFFFFF" d="M592.872,537.169c18.044-12.747,42.909-13.434,57.845-3.291c5.563,3.777,11.313,7.315,16.584,11.464
		c1.749,1.377,3.128,4.3,3.18,6.551c0.153,6.498-0.456,13.013-2.241,20.419C652.833,540.897,622.653,541.076,592.872,537.169z"/>
	<path fill="#FFFFFF" d="M660.1,647.206c1.404-2.144,3.585-4.517,5.931-5.175c9.586-2.689,20.134,3.875,23.41,15.365
		c1.926,6.757,1.791,14.102,2.651,21.794c-12.884,0.591-24.243,0.708-34.561-6.218c-5.901-3.961-6.228-9.424-4.111-14.969
		C654.064,656.317,659.727,647.776,660.1,647.206z"/>
	<path fill="#FFFFFF" d="M125.015,581.7c4.362,3.321,8.066,6.519,12.129,9.167c17.264,11.253,20.258,21.93,11.184,40.792
		C125.512,629.667,113.002,609.208,125.015,581.7z"/>
	<path fill="#FFFFFF" d="M541.771,645.004c0.936,0.404,1.796,0.971,2.603,1.593c4.866,3.753,2.998,2.018,8.566,9.439
		c5.709,7.609,3.581,18.856-4.443,22.168c-5.493,2.267-12.016,2.166-18.112,2.792c-3.532,0.362-7.131,0.066-12.771,0.066
		c1.193-10.131,1.031-19.555,3.652-28.128C524.011,643.957,532.899,641.178,541.771,645.004z"/>
	<path fill="#FFFFFF" d="M1053.076,631.729c-15.282-27.111,6.165-36.863,22.484-48.77
		C1086.829,606.607,1077.39,627.681,1053.076,631.729z"/>
	<path fill="#FFFFFF" d="M353.527,612.628c5.049,2.693,8.915,0.982,13.457-2.153c11.236-7.755,24.507-9.763,37.748-10.377
		c9.772-0.453,19.674,0.189,29.401,1.34c3.706,0.439,7.082,3.66,10.1,6.988c-27.419-0.24-54.775-5.044-79.134,11.705
		c1.477,4.891,3.302,9.2,4.009,13.685c1.02,6.459-2.954,11.295-8.587,11.458c-6.463,0.187-10.994-4.05-10.345-10.754
		c0.384-3.965,1.647-8.308,3.896-11.512c2.877-4.1,2.851-7.137-0.406-10.54C353.665,612.47,353.527,612.628,353.527,612.628z
		 M363.835,623.469c-0.865-0.168-1.73-0.336-2.595-0.504c-2.457,3.665-5.529,7.07-7.214,11.062
		c-2.078,4.924,1.189,8.473,5.722,8.455c2.337-0.009,6.398-3.747,6.607-6.076C366.732,632.203,364.801,627.793,363.835,623.469z"/>
	<path fill="#FFFFFF" d="M116.249,637.629c-2.276,23.622-19.619,26.631-37.192,29.884c-1.353-8.982-2.996-18.241,5.713-25.181
		C94.54,634.547,105.38,634.391,116.249,637.629z"/>
	<path fill="#FFFFFF" d="M197.697,597.85c-2.276,23.622-19.619,26.631-37.192,29.884c-1.353-8.982-2.996-18.241,5.713-25.181
		C175.989,594.768,186.828,594.612,197.697,597.85z"/>
	<path fill="#FFFFFF" d="M132.257,645.281c14.295,18.943,3.553,32.887-7.194,47.165c-7.07-5.703-14.541-11.414-12.817-22.415
		C114.179,657.688,122.06,650.244,132.257,645.281z"/>
	<path fill="#FFFFFF" d="M715.569,530.784c-3.121,2.707-4.194,4.931-5.693,12.706c-1.405,10.093-0.561,23.359-8.431,31.008
		c-1.739,1.69-3.327,3.625-5.168,5.071c-3.351,2.631-7.314,4.483-11.022,6.659c-1.615-4.019-4.119-7.936-4.601-12.086
		c-0.51-4.392,0.525-9.101,1.607-13.494c0.762-3.094,2.521-6.017,4.203-8.794c2.721-4.494,4.129-6.379,7.123-10.918
		C699.477,536.464,702.409,531.798,715.569,530.784z"/>
	<path fill="#FFFFFF" d="M1121.755,666.98c-18.014-2.777-34.459-6.698-36.826-28.996c9.965-3.292,20.059-2.914,29.507,3.319
		C1124.237,647.768,1122.633,657.585,1121.755,666.98z"/>
	<path fill="#FFFFFF" d="M1072.669,684.102c-10.087-11.647-18.538-23.173-7.861-38.835c8.223,3.332,14.52,9.099,17.197,18.286
		C1084.781,673.081,1078.375,678.529,1072.669,684.102z"/>
	<path fill="#FFFFFF" d="M1038.891,628.741c3.796-14.933,6.184-29.024-10.381-38.239c-5.857,6.664-8.9,14.642-7.175,24.054
		C1023.124,624.319,1031.292,626.317,1038.891,628.741z"/>
	<path fill="#FFFFFF" d="M628.715,559.078c-9.759,1.577-19.937,2.097-29.348,5.057c-9.469,2.978-18.174,8.383-27.127,12.683
		c-2.283-10.018,0.816-17.782,10.182-21.528c8.13-3.252,16.624-6.066,25.221-7.558C617.154,546.081,624.786,551.016,628.715,559.078
		z"/>
	<path fill="#FFFFFF" d="M511.984,636.031c3.149,2.22,4.432,3.025,5.249,4.796c0.812,1.759,0.797,3.8,0.12,5.615
		c-2.539,6.801-5.941,12.183-12.766,13.033c-6.473,0.806-13.267-0.968-19.805-1.59c-2.19-7.822,0.97-17.791,7.146-22.309
		C498.352,630.876,504.856,631.199,511.984,636.031z"/>
	<path fill="#FFFFFF" d="M550.747,585.583c-6.07-9.758-4.35-20.544,4.325-30.979c11.853-14.258,26.208-18.449,44.524-11.063
		C571.754,546.064,560.397,564.761,550.747,585.583z"/>
	<path fill="#FFFFFF" d="M499.615,606.647c-9.217-2.536-19.411-3.361-27.018-8.229c-4.114-2.633-3.853-12.161-5.351-18.628
		c-0.064-0.275,1.998-1.406,3.141-1.543C485.901,576.391,500.476,590.313,499.615,606.647z"/>
	<path fill="#FFFFFF" d="M702.794,615.819c3.155-18.728,9.834-25.402,26.57-28.152c5.867-0.964,8.412,0.791,7.081,7.008
		c-1.595,7.45-2.91,14.197-13.12,14.942C716.574,610.111,710.037,613.521,702.794,615.819z"/>
	<path fill="#FFFFFF" d="M616.996,644.836c-11.645,18.204-33.958,15.343-44.641-3.95
		C586.571,642.144,601.522,643.467,616.996,644.836z"/>
	<path fill="#FFFFFF" d="M634.3,592.09c-8.899-14.919-24.017-21.609-40.359-18.176c3.539-4.046,12.395-6.925,22.086-6.903
		c3.878,0.008,7.769,0.395,11.627,0.838c4.965,0.57,10.22,1.156,11.404,7.352C640.25,581.449,639.891,587.45,634.3,592.09z"/>
	<path fill="#FFFFFF" d="M610.731,580.5c16.409,2.059,20.262,9.404,11.691,21.721c-3.092,4.444-7.924,7.882-12.499,10.987
		c-1.729,1.173-4.974,0.111-8.389-0.92C617.108,605.007,620.449,594.619,610.731,580.5z"/>
	<path fill="#FFFFFF" d="M575.818,584.866c3.447,12.965,10.814,19.736,21.97,23.472c-8.696,4.223-15.482,3.172-20.733-2.704
		C572.171,600.17,570.632,594.113,575.818,584.866z"/>
	<g>
		<path fill="none" d="M829.507,614.259l1.874-1.01C831.422,613.212,829.507,614.259,829.507,614.259z"/>
		<path fill="none" d="M836.772,638.047c1.154,1.684,7.439,2.389,8.629,1.07c5.091-5.645,0.301-10.222-3.335-15.542
			C837.792,628.33,832.714,632.127,836.772,638.047z"/>
		<path fill="#FFFFFF" d="M1019.623,631.583c-20.779-5.535-41.25-12.218-61.9-18.245c-24.724-7.217-49.642-13.299-75.733-11.933
			c-13.708,0.718-27.057,3.244-37.975,11.941c-5.06,4.03-8.469,3.714-12.633-0.098l-1.874,1.01c1.565,2.273,5.149,3.366,5.572,3.98
			c-1.281,6.784-3.303,12.244-3.061,17.601c0.273,6.036,5.306,9.022,11.067,8.337c6.414-0.763,7.425-6.065,6.342-11.249
			c-0.818-3.913-2.969-7.548-4.937-12.296c5.36-2.742,10.658-5.945,16.321-8.255c16.426-6.7,33.752-7.012,50.59-3.445
			c26.853,5.688,53.379,12.94,79.984,19.764c22.131,5.677,44.143,11.806,67.369,10.411c13.224-0.794,24.958-5.269,32.095-13.488
			C1067.121,640.278,1043.347,637.903,1019.623,631.583z M845.401,639.117c-1.19,1.319-7.475,0.614-8.629-1.07
			c-4.058-5.92,1.02-9.717,5.294-14.471C845.702,628.896,850.492,633.472,845.401,639.117z"/>
		<path fill="#FFFFFF" d="M767.846,609.645c0.844,0.177,1.579,0.509,2.283,0.452c19.688-1.585,39.371-3.258,58.524,3.75
			c0.507,0.241,0.278,0.124,0.854,0.412c0,0,1.914-1.047,1.874-1.01C805.985,605.085,774.665,603.211,767.846,609.645z"/>
	</g>
	<path fill="#FFFFFF" d="M582.034,586.156c0.978-2.135,1.399-5.191,3.125-6.436c6.115-4.411,16.318-3.41,21.982,1.537
		C599.562,582.737,591.896,584.232,582.034,586.156z"/>
	<path fill="#FFFFFF" d="M585.937,593.454c7.827,5.43,15.266,6.594,23.302,2.239c-2.19,6.124-6.621,7.859-12.021,7.534
		C591.715,602.896,587.574,600.537,585.937,593.454z"/>
</g>
</svg>
