<?xml version="1.0" encoding="utf-8"?>
<!-- Designed by Vexels.com - 2016 All Rights Reserved - https://vexels.com/terms-and-conditions/  -->

<svg version="1.1" id="Layer_1" xmlns="http://www.w3.org/2000/svg" xmlns:xlink="http://www.w3.org/1999/xlink" x="0px" y="0px"
	 width="1200px" height="1200px" viewBox="0 0 1200 1200" enable-background="new 0 0 1200 1200" xml:space="preserve">
<path fill="#ffffff" d="M1137.65,602.852c-6.821,0-12.359,5.537-12.359,12.354c0,2.379,0.704,4.572,1.875,6.46
	c-20.666,20.727-47.496,30.927-77.9,27.692c-22.807-2.431-44.4-9.586-65.517-18.082c8.025,2.098,16.118,3.962,24.229,5.561
	c17.012,3.372,36.988,8.377,54.247,3.511c16.375-4.605,29.609-20.689,24.529-38.567c-4.41-15.471-17.102-26.251-32.592-29.88
	c-12.027-2.812-29.686,2.293-37.074,12.583c-7.897,10.989-2.474,24.7,9.71,30.137c8.511,3.806,30.266,5.975,30.922-8.82
	c0.419-9.438-7.112-14.624-15.285-14.667c-1.294-2.969-4.244-5.042-7.683-5.042c-4.629,0-8.382,3.739-8.382,8.377
	c0,4.629,3.754,8.382,8.382,8.382c4.624,0,8.377-3.753,8.377-8.382c0-0.309-0.057-0.614-0.095-0.913
	c13.168-1.813,11.879,17.449,1.475,20.637c-10.395,3.187-25.489-3.411-26.669-15.394c-1.022-10.276,7.321-18.116,16.274-21.67
	c14.786-5.856,31.526-2.95,41.345,10.58c6.551,9.024,10.033,20.984,5.143,31.693c-11.836,25.946-42.316,20.96-65.427,16.588
	c-16.931-3.202-33.748-7.179-50.103-12.549c-5.228-2.26-10.452-4.539-15.666-6.784c-28.153-12.16-59.37-23.144-90.588-19.924
	c-23.577,2.436-40.275,15.818-57.092,30.218c1.78-4.8,2.602-10.229,2.203-16.379c-1.004-15.333-13.358-30.404-27.902-35.066
	c-12.787-4.106-32.782-4.629-39.175,10.39c-5.233,12.293,0.147,27.388,14.129,30.342c10.904,2.308,25.556-4.548,21.755-16.146
	c1.203-1.479,1.965-3.349,1.965-5.414c0-4.743-3.839-8.587-8.587-8.587s-8.606,3.844-8.606,8.587c0,4.748,3.858,8.596,8.606,8.596
	c0.937,0,1.832-0.19,2.673-0.466c0.11,2.474-0.685,4.9-2.992,6.908c-5.186,4.51-13.178,9.414-20.542,1.451
	c-5.214-5.661-7.85-14.138-4.7-21.555c10.513-24.685,45.004-14.514,54.561,6.132c14.438,31.236-14.657,56.926-44.623,59.503
	c-50.479,4.329-97.59-36.255-147.884-25.798c24.838-14.277,60.812-2.065,86.225-16.194c26.831-14.947,26.945-54.922-1.712-63.819
	c-0.072-5.137-4.239-9.281-9.4-9.281c-5.19,0-9.41,4.215-9.41,9.41c0,5.205,4.22,9.41,9.41,9.41c4.12,0,7.574-2.655,8.849-6.318
	c20.294,6.826,23.586,34.081,8.768,50.037c-10.166,10.927-25.114,13.496-39.367,14.643c-10.875,0.856-22.93,0.856-34.419,2.583
	c18.458-6.684,38.187-12.055,36.426-35.789c-2.046-27.326-44.49-27.72-38.681-4.101c-2.079,1.237-3.482,3.468-3.482,6.061
	c0,3.896,3.164,7.055,7.06,7.055c3.896,0,7.055-3.159,7.055-7.055c0-3.578-2.674-6.498-6.108-6.97
	c-2.531-15.352,21.17-18.858,27.221-4.577c2.198,5.209,2.907,10.951,1.313,16.48c-3.682,12.711-12.74,19.019-24.804,23.182
	c-9.253,3.206-19.524,5.923-27.54,11.256c-8.035-5.333-18.296-8.05-27.549-11.256c-12.065-4.162-21.132-10.471-24.8-23.182
	c-1.603-5.528-0.899-11.27,1.299-16.48c6.051-14.281,29.752-10.775,27.221,4.577c-3.434,0.471-6.103,3.392-6.103,6.97
	c0,3.896,3.159,7.055,7.05,7.055c3.896,0,7.065-3.159,7.065-7.055c0-2.593-1.408-4.824-3.483-6.061
	c5.814-23.62-36.64-23.225-38.676,4.101c-1.77,23.734,17.958,29.105,36.426,35.789c-11.484-1.727-23.563-1.727-34.419-2.583
	c-14.253-1.146-29.21-3.715-39.371-14.643c-14.823-15.956-11.522-43.211,8.754-50.037c1.285,3.663,4.748,6.318,8.853,6.318
	c5.205,0,9.415-4.206,9.415-9.41c0-5.195-4.21-9.41-9.415-9.41c-5.143,0-9.315,4.144-9.4,9.281
	c-28.644,8.896-28.534,48.872-1.708,63.819c25.423,14.129,61.397,1.917,86.22,16.194c-50.289-10.456-97.4,30.127-147.874,25.798
	c-29.966-2.578-59.061-28.267-44.613-59.503c9.543-20.647,44.033-30.818,54.556-6.132c3.154,7.417,0.523,15.894-4.7,21.555
	c-7.373,7.964-15.361,3.059-20.551-1.451c-2.303-2.008-3.102-4.434-2.988-6.908c0.847,0.276,1.732,0.466,2.673,0.466
	c4.748,0,8.597-3.848,8.597-8.596c0-4.743-3.848-8.587-8.597-8.587c-4.748,0-8.591,3.844-8.591,8.587
	c0,2.065,0.761,3.934,1.96,5.414c-3.787,11.598,10.866,18.453,21.769,16.146c13.967-2.954,19.362-18.049,14.119-30.342
	c-6.384-15.019-26.379-14.495-39.162-10.39c-14.548,4.662-26.907,19.733-27.911,35.066c-0.404,6.151,0.424,11.579,2.198,16.379
	c-16.807-14.4-33.515-27.783-57.092-30.218c-31.208-3.221-62.429,7.764-90.588,19.924c-5.214,2.245-10.428,4.524-15.656,6.784
	c-16.36,5.371-33.182,9.348-50.113,12.549c-23.092,4.372-53.586,9.357-65.422-16.588c-4.895-10.709-1.403-22.669,5.143-31.693
	c9.81-13.53,26.555-16.436,41.34-10.58c8.958,3.554,17.307,11.394,16.289,21.67c-1.194,11.983-16.289,18.582-26.674,15.394
	c-10.404-3.187-11.698-22.449,1.47-20.637c-0.038,0.3-0.095,0.604-0.095,0.913c0,4.629,3.749,8.382,8.382,8.382
	s8.382-3.753,8.382-8.382c0-4.639-3.749-8.377-8.382-8.377c-3.444,0-6.394,2.074-7.688,5.042
	c-8.173,0.043-15.699,5.228-15.28,14.667c0.656,14.795,22.397,12.626,30.913,8.82c12.183-5.438,17.621-19.148,9.719-30.137
	c-7.402-10.29-25.057-15.395-37.078-12.583c-15.495,3.63-28.192,14.41-32.592,29.88c-5.08,17.878,8.145,33.962,24.529,38.567
	c17.259,4.867,37.24-0.138,54.242-3.511c8.116-1.599,16.208-3.464,24.233-5.561c-21.122,8.496-42.711,15.651-65.517,18.082
	c-30.404,3.235-57.229-6.965-77.895-27.692c1.161-1.889,1.86-4.082,1.86-6.46c0-6.817-5.532-12.354-12.35-12.354
	c-6.822,0-12.354,5.537-12.354,12.354c0,6.822,5.532,12.359,12.354,12.359c2.773,0,5.295-0.951,7.355-2.483
	c14.624,14.457,32.249,24.086,53.314,27.383c30.427,4.743,61.778-5.305,89.807-16.089c34.186-13.135,65.965-30.822,102.819-35.541
	c20.927-2.683,40.137,0.086,57.881,11.746c4.167,2.745,8.126,5.799,11.97,8.972c-38.686-12.093-88.628,13.591-125.23,26.493
	c-1.313-2.926-4.234-4.976-7.65-4.976c-4.629,0-8.382,3.758-8.382,8.383c0,4.638,3.753,8.392,8.382,8.392
	c4.643,0,8.382-3.753,8.382-8.392c0-0.643-0.076-1.27-0.219-1.875c39.99-14.162,94.736-43.576,133.303-20.471
	c-18.401-4.305-37.644,1.732-54.066,11.299c-1.798-2.217-4.519-3.673-7.602-3.673c-5.433,0-9.829,4.391-9.829,9.814
	c0,5.433,4.395,9.819,9.829,9.819c5.423,0,9.819-4.386,9.819-9.819c0-1.603-0.418-3.102-1.113-4.448
	c17.431-10.656,38.191-16.964,57.8-8.244c0.214,0.1,0.499,0.11,0.809,0.091c2.455,2.16,4.928,4.305,7.422,6.404
	c16.022,15.413,45.879,18.924,66.801,15.666c41.06-6.38,83.033-35.404,125.353-23.254c0.162,0.057,0.409,0.039,0.675,0.005l0,0
	c0,0,0.01,0,0.024,0c0,0,0.005,0.005,0.015,0l0,0c0.266,0.034,0.513,0.053,0.675-0.005c42.311-12.15,84.289,16.874,125.349,23.254
	c20.917,3.258,50.784-0.252,66.806-15.666c2.503-2.098,4.967-4.244,7.417-6.404c0.319,0.019,0.595,0.01,0.804-0.091
	c19.619-8.72,40.366-2.412,57.806,8.244c-0.69,1.346-1.109,2.845-1.109,4.448c0,5.433,4.391,9.819,9.824,9.819
	c5.418,0,9.81-4.386,9.81-9.819c0-5.423-4.391-9.814-9.81-9.814c-3.088,0-5.799,1.456-7.617,3.673
	c-16.412-9.567-35.651-15.604-54.066-11.299c38.567-23.106,93.313,6.309,133.312,20.471c-0.148,0.604-0.224,1.232-0.224,1.875
	c0,4.638,3.749,8.392,8.382,8.392c4.624,0,8.387-3.753,8.387-8.392c0-4.624-3.763-8.383-8.387-8.383
	c-3.415,0-6.341,2.05-7.659,4.976c-36.602-12.901-86.535-38.586-125.216-26.493c3.844-3.173,7.792-6.228,11.959-8.972
	c17.745-11.66,36.964-14.429,57.896-11.746c36.831,4.719,68.637,22.407,102.809,35.541c28.03,10.785,59.385,20.832,89.807,16.089
	c21.051-3.297,38.691-12.926,53.305-27.383c2.065,1.532,4.591,2.483,7.364,2.483c6.822,0,12.35-5.537,12.35-12.359
	C1150,608.389,1144.472,602.852,1137.65,602.852z"/>
</svg>
