<svg version="1.1" id="Layer_1" xmlns="http://www.w3.org/2000/svg" xmlns:xlink="http://www.w3.org/1999/xlink" x="0px" y="0px" viewBox="0 0 1200 1200" enable-background="new 0 0 1200 1200" xml:space="preserve">
<g>
	<path fill="#F4877D" d="M291.945,714.26c0,0,7.468,10.455-16.43,19.417c-23.898,8.962-85.135-2.987-120.982-1.494&#10;&#9;&#9;c-35.846,1.494-55.263,22.404-55.263,22.404s2.987-53.77-14.936-95.59c-17.923-41.821-40.327-59.744-32.859-68.706&#10;&#9;&#9;c7.468-8.962,55.263-14.936,85.135-4.481s76.174-11.949,76.174-11.949l62.731,26.885l-4.481,86.629L291.945,714.26z" style="fill: rgb(138, 173, 166);"/>
	<path fill="#F4877D" d="M908.055,714.26c0,0-7.468,10.455,16.43,19.417c23.898,8.962,85.135-2.987,120.982-1.494&#10;&#9;&#9;c35.846,1.494,55.263,22.404,55.263,22.404s-2.987-53.77,14.936-95.59c17.923-41.821,40.327-59.744,32.859-68.706&#10;&#9;&#9;c-7.468-8.962-55.263-14.936-85.135-4.481s-76.174-11.949-76.174-11.949l-62.731,26.885l4.481,86.629L908.055,714.26z" style="fill: rgb(138, 173, 166);"/>
	<path fill="#F3B625" d="M197.102,704.552l0.257,0.63c11.418,13.81,42.983-5.902,64.714-7.351&#10;&#9;&#9;c22.404-1.494,29.872,16.43,29.872,16.43l-8.962-55.263c0,0-23.898,2.987-58.25,13.442&#10;&#9;&#9;C190.381,682.895,197.102,704.552,197.102,704.552z" style="fill: rgb(102, 102, 102);"/>
	<path fill="#F4877D" d="M1010.25,497.408c-65.303-19.387-219.069-51.996-403.902-51.996c-2.129,0-4.237,0.014-6.348,0.026&#10;&#9;&#9;c-2.111-0.012-4.219-0.026-6.348-0.026c-184.833,0-338.599,32.609-403.902,51.996c-41.191,12.229-31.822,22.141-28.811,39.461&#10;&#9;&#9;c8.924,51.34,27.598,154.651,35.416,166.936c0.314,0.493,0.651,0.949,1.004,1.377l-0.257-0.63c0,0-6.721-21.657,27.632-32.112&#10;&#9;&#9;c34.353-10.455,58.25-13.442,58.25-13.442S451.943,626.963,600,626.164c148.057,0.798,317.016,32.833,317.016,32.833&#10;&#9;&#9;s23.898,2.987,58.25,13.442c34.353,10.455,27.632,32.112,27.632,32.112l-0.257,0.63c0.354-0.428,0.69-0.883,1.004-1.377&#10;&#9;&#9;c7.818-12.285,26.492-115.595,35.416-166.936C1042.071,519.549,1051.44,509.637,1010.25,497.408z" style="fill: rgb(138, 173, 166);"/>
	<path fill="#F3B625" d="M1002.898,704.552l-0.257,0.63c-11.418,13.81-42.983-5.902-64.714-7.351&#10;&#9;&#9;c-22.404-1.494-29.872,16.43-29.872,16.43l8.962-55.263c0,0,23.898,2.987,58.25,13.442&#10;&#9;&#9;C1009.62,682.895,1002.898,704.552,1002.898,704.552z" style="fill: rgb(102, 102, 102);"/>
</g>
</svg>